# xmcd
#
# Track frame offsets:
#	150
#	11184
#	28289
#	40764
#	57795
#	73075
#	92057
#	111986
#	134371
#	150009
#	166651
#	183047
#	199202
#	217965
#
# Disc length: 3124 seconds
#
# Revision: 0
# Processed by: cddbd v1.4PL0 Copyright (c) Steve Scherf et al.
# Submitted via: EasyCDDAExtractor 4.6.0.1
#
DISCID=b60c320e
DTITLE=Los Delfines - A Plena Diversion
DYEAR=2002
DGENRE=latin
TTITLE0=Gordito pero feliz
TTITLE1=Danzarina
TTITLE2=No, No y No
TTITLE3=Lola Morena
TTITLE4=Guadalupe
TTITLE5=Amigos son los amigos
TTITLE6=El tren de la amistad
TTITLE7=Amor casual
TTITLE8=Mi amigo el Bailarin
TTITLE9=La Manuela
TTITLE10=Dunga-Dunga
TTITLE11=Los de Carmelo
TTITLE12=Danzarina Rmx
TTITLE13=La Manuela Rmx
EXTD=
EXTT0=
EXTT1=
EXTT2=
EXTT3=
EXTT4=
EXTT5=
EXTT6=
EXTT7=
EXTT8=
EXTT9=
EXTT10=
EXTT11=
EXTT12=
EXTT13=
PLAYORDER=
